<svg width="96" height="41" viewBox="0 0 96 41" fill="none" xmlns="http://www.w3.org/2000/svg">
<circle cx="20.5" cy="20.5" r="20.5" fill="#068374"/>
<path d="M6.90731 8.50965H14.5478C15.4353 8.50965 16.3228 8.57718 17.2104 8.71223C18.1172 8.828 18.9275 9.07882 19.6414 9.46471C20.3553 9.83129 20.9341 10.3522 21.3779 11.0275C21.8217 11.7028 22.0435 12.6 22.0435 13.7191C22.0435 14.8767 21.7155 15.8414 21.0595 16.6132C20.4228 17.3656 19.5739 17.9059 18.5127 18.2339V18.2918C19.188 18.3882 19.7958 18.5812 20.336 18.8706C20.8955 19.1407 21.3683 19.4976 21.7541 19.9414C22.1593 20.3659 22.468 20.8675 22.6803 21.4464C22.8925 22.0252 22.9986 22.6426 22.9986 23.2986C22.9986 24.3791 22.7671 25.2859 22.304 26.0191C21.841 26.7329 21.2428 27.3118 20.5097 27.7555C19.7765 28.1993 18.9468 28.5176 18.0207 28.7106C17.1139 28.9035 16.2071 29 15.3003 29H6.90731V8.50965ZM11.4221 16.7H14.6925C15.0398 16.7 15.3774 16.6614 15.7054 16.5842C16.0527 16.5071 16.3614 16.3816 16.6315 16.208C16.9017 16.0344 17.1139 15.8028 17.2683 15.5134C17.4419 15.224 17.5287 14.8767 17.5287 14.4715C17.5287 14.0471 17.4323 13.6998 17.2393 13.4296C17.0657 13.1402 16.8341 12.9184 16.5447 12.764C16.2553 12.6096 15.9273 12.5035 15.5607 12.4456C15.1941 12.3685 14.8372 12.3299 14.4899 12.3299H11.4221V16.7ZM11.4221 25.1798H15.4739C15.8212 25.1798 16.1685 25.1412 16.5158 25.064C16.8824 24.9868 17.2104 24.8518 17.4998 24.6588C17.7892 24.4659 18.0207 24.2151 18.1944 23.9064C18.3873 23.5976 18.4838 23.2214 18.4838 22.7776C18.4838 22.2953 18.3584 21.9094 18.1075 21.62C17.876 21.3113 17.577 21.0798 17.2104 20.9254C16.8438 20.7711 16.4483 20.6649 16.0238 20.6071C15.5993 20.5492 15.2038 20.5202 14.8372 20.5202H11.4221V25.1798ZM33.951 27.2346H33.8932C33.4108 27.9871 32.7644 28.5273 31.9541 28.8553C31.163 29.1833 30.3237 29.3473 29.4362 29.3473C28.7802 29.3473 28.1435 29.2508 27.5261 29.0579C26.928 28.8842 26.3974 28.6141 25.9343 28.2475C25.4713 27.8809 25.1047 27.4275 24.8346 26.8873C24.5644 26.3471 24.4294 25.72 24.4294 25.0061C24.4294 24.1958 24.5741 23.5108 24.8635 22.9513C25.1722 22.3918 25.5774 21.9287 26.079 21.5621C26.6 21.1955 27.1884 20.9158 27.8444 20.7228C28.5004 20.5106 29.1757 20.3562 29.8703 20.2598C30.5842 20.1633 31.2884 20.1054 31.983 20.0861C32.6969 20.0668 33.3529 20.0572 33.951 20.0572C33.951 19.2854 33.6713 18.6776 33.1117 18.2339C32.5715 17.7708 31.9252 17.5393 31.1727 17.5393C30.4588 17.5393 29.8028 17.6936 29.2047 18.0024C28.6259 18.2918 28.1049 18.6969 27.6419 19.2179L25.3266 16.8447C26.1369 16.0922 27.0823 15.5327 28.1628 15.1661C29.2433 14.7802 30.3623 14.5873 31.52 14.5873C32.7934 14.5873 33.8353 14.7513 34.6456 15.0793C35.4753 15.388 36.1313 15.8511 36.6136 16.4685C37.1153 17.0859 37.4626 17.848 37.6555 18.7548C37.8484 19.6424 37.9449 20.6746 37.9449 21.8515V29H33.951V27.2346ZM32.8802 22.8355C32.5522 22.8355 32.1374 22.8548 31.6357 22.8934C31.1534 22.9127 30.6807 22.9899 30.2176 23.1249C29.7739 23.26 29.388 23.4626 29.06 23.7327C28.7513 24.0028 28.5969 24.3791 28.5969 24.8614C28.5969 25.3824 28.8188 25.7682 29.2626 26.0191C29.7063 26.2699 30.1694 26.3953 30.6517 26.3953C31.0762 26.3953 31.4814 26.3374 31.8673 26.2216C32.2724 26.1059 32.6294 25.9419 32.9381 25.7296C33.2468 25.5174 33.488 25.2473 33.6616 24.9193C33.8546 24.5913 33.951 24.2054 33.951 23.7616V22.8355H32.8802Z" fill="white"/>
<path d="M40.6685 14.9346H44.8361V16.8447H44.894C45.029 16.5746 45.222 16.3045 45.4728 16.0344C45.7236 15.7642 46.0227 15.5231 46.37 15.3108C46.7173 15.0986 47.1128 14.9249 47.5565 14.7899C48.0003 14.6548 48.4827 14.5873 49.0036 14.5873C50.1034 14.5873 50.9909 14.7609 51.6662 15.1082C52.3415 15.4362 52.8624 15.8993 53.229 16.4974C53.6149 17.0955 53.8754 17.7998 54.0104 18.6101C54.1455 19.4205 54.213 20.2984 54.213 21.2438V29H49.8718V22.112C49.8718 21.7068 49.8525 21.292 49.814 20.8675C49.7947 20.4238 49.7078 20.0186 49.5535 19.652C49.4184 19.2854 49.1965 18.9864 48.8878 18.7548C48.5984 18.5233 48.174 18.4075 47.6144 18.4075C47.0549 18.4075 46.6015 18.5136 46.2542 18.7259C45.9069 18.9188 45.6368 19.1889 45.4438 19.5362C45.2702 19.8642 45.1544 20.2405 45.0965 20.6649C45.0387 21.0894 45.0097 21.5332 45.0097 21.9962V29H40.6685V14.9346ZM57.2871 7.12047H61.6283V20.4913L66.4325 14.9346H71.7577L66.1721 21.2727L71.9024 29H66.4325L61.6862 21.8805H61.6283V29H57.2871V7.12047ZM73.4266 7.12047H77.7677V29H73.4266V7.12047ZM88.9901 31.2864C88.7007 32.0388 88.421 32.7045 88.1508 33.2833C87.8807 33.8621 87.5334 34.3445 87.109 34.7304C86.7038 35.1355 86.1828 35.4346 85.5461 35.6275C84.9094 35.8398 84.0701 35.9459 83.0283 35.9459C81.9092 35.9459 80.8287 35.7722 79.7868 35.4249L80.3657 31.8652C81.0217 32.1546 81.697 32.2993 82.3916 32.2993C82.8739 32.2993 83.2694 32.2414 83.5781 32.1256C83.8868 32.0292 84.1377 31.8748 84.3306 31.6626C84.5428 31.4696 84.7165 31.2285 84.8516 30.9391C84.9866 30.6496 85.1313 30.312 85.2857 29.9261L85.604 29.1158L79.4396 14.9346H84.128L87.7457 24.2247H87.8036L90.9003 14.9346H95.3572L88.9901 31.2864Z" fill="#068374"/>
</svg>
